<svg xmlns:xlink="http://www.w3.org/1999/xlink" version="1.1" id="Layer_1" xmlns="http://www.w3.org/2000/svg" x="0px"
     y="0px"
     width="100%" viewBox="0 0 974 757" enable-background="new 0 0 974 757" xml:space="preserve">
<path fill="currentColor" opacity="1.000000" stroke="none"
      d="
M808.399963,758.000000 
	C806.679077,740.193054 805.352051,722.386536 804.039612,704.578979 
	C803.360779,695.367188 802.845581,686.141113 802.013245,676.943420 
	C800.461548,659.795227 798.897644,642.645020 797.022766,625.530273 
	C795.604492,612.583496 794.350037,599.561523 791.838867,586.806091 
	C788.672913,570.724915 784.387878,554.859680 780.424988,538.941223 
	C777.293762,526.363770 771.273926,514.981445 761.175171,507.064636 
	C750.988281,499.078766 739.350342,492.941071 728.322998,486.033691 
	C726.837097,485.102966 725.205017,484.405670 723.266907,483.407837 
	C731.188660,480.494812 738.585999,477.745483 746.004211,475.053436 
	C757.758789,470.787720 769.603760,466.615723 779.572449,458.785797 
	C789.969543,450.619415 794.568542,438.742279 799.013367,426.859131 
	C799.786743,424.791565 800.462830,422.687622 801.396790,419.984192 
	C791.567871,419.984192 782.292480,420.110840 773.022095,419.950043 
	C762.922729,419.774841 752.821045,419.025360 742.736694,419.251343 
	C740.564026,419.300049 737.803284,422.039612 736.437134,424.238007 
	C729.862976,434.816559 720.504150,442.500336 710.201843,448.810577 
	C699.690613,455.248810 688.829346,461.370575 676.524475,464.017120 
	C674.168091,464.523895 671.691406,465.088898 669.358093,464.831207 
	C668.149109,464.697693 666.725403,463.000031 666.146362,461.680786 
	C665.592834,460.419708 665.999512,458.733246 665.999451,457.233765 
	C665.998108,402.580841 665.998596,347.927887 665.998779,293.274963 
	C665.998779,280.657928 665.976318,268.040833 666.007751,255.423859 
	C666.024658,248.641953 668.722900,246.163345 675.585999,245.970200 
	C688.392578,245.609787 699.848877,250.968491 711.726440,254.438904 
	C718.302307,256.360260 724.608459,259.198792 731.057983,261.564789 
	C731.953674,261.893372 732.974121,262.007782 733.937012,262.008850 
	C755.751709,262.032959 777.566467,262.027405 799.629883,262.027405 
	C801.136414,256.306274 797.970764,251.927628 795.792664,247.449692 
	C787.896301,231.215546 773.640747,222.845093 757.454468,216.949142 
	C747.440552,213.301498 737.443237,209.608475 726.319763,205.525162 
	C733.425354,202.333435 739.596252,200.095932 745.240234,196.921463 
	C759.496704,188.902847 773.228516,180.045593 779.034668,163.543808 
	C782.704712,153.113251 786.213379,142.571945 788.859558,131.849579 
	C791.809692,119.895523 793.817566,107.701248 796.014526,95.571487 
	C797.755371,85.959862 799.293396,76.306480 800.673950,66.636307 
	C801.668579,59.670063 802.156799,52.633018 803.047241,45.650043 
	C804.577515,33.649017 806.193726,21.658195 807.895508,9.680366 
	C808.274048,7.016072 809.156921,4.423430 809.903809,1.398901 
	C810.444458,1.000000 810.888916,1.000000 811.720459,1.411859 
	C812.379944,2.200600 812.840149,2.550996 812.897522,2.958225 
	C814.628723,15.227793 816.265564,27.510851 818.032898,39.775120 
	C819.956909,53.127010 821.847900,66.486595 824.029114,79.797630 
	C826.018860,91.939781 827.999756,104.105621 830.673462,116.107552 
	C833.705444,129.717331 837.354248,143.197037 841.015991,156.656799 
	C843.916260,167.317413 849.291199,176.779770 857.658447,184.005783 
	C866.831848,191.927933 877.160583,198.178070 888.662292,202.365234 
	C890.434937,203.010574 891.815186,204.733856 893.892456,206.362961 
	C884.185303,209.784286 875.414673,212.847000 866.664307,215.966843 
	C855.682068,219.882477 844.189209,223.645828 836.802246,233.016068 
	C830.272888,241.298370 825.653137,251.086090 819.505188,261.353180 
	C822.769592,261.713806 824.156616,261.998322 825.544006,262.000458 
	C844.201294,262.028839 862.859314,262.087189 881.514893,261.908813 
	C883.366394,261.891083 885.470215,260.703552 886.997803,259.483948 
	C891.716187,255.716858 895.841492,251.077225 900.907593,247.914780 
	C905.263977,245.195374 911.333557,241.464172 915.373169,242.621506 
	C936.715210,248.735947 957.435974,256.707397 975.000000,271.000000 
	C975.000000,271.750000 975.000000,272.500000 974.650757,273.696594 
	C970.325623,279.451569 966.190674,284.650391 962.430786,290.107605 
	C960.004028,293.629730 956.871948,297.344025 956.283081,301.303436 
	C955.272156,308.100922 956.003296,315.157379 956.001709,322.105133 
	C955.992126,364.921570 956.016907,407.738037 955.926514,450.554321 
	C955.915771,455.637726 955.275635,460.719788 954.891418,466.324768 
	C950.453064,465.214081 946.575623,464.256470 942.704773,463.272736 
	C928.395691,459.636292 915.900879,452.219971 904.331726,443.497192 
	C896.481079,437.578033 888.265076,431.515289 884.691772,421.470551 
	C884.293640,420.351227 882.145264,419.183594 880.811096,419.186493 
	C875.580322,419.197784 870.352356,419.884583 865.119995,419.928528 
	C850.819824,420.048645 836.517944,419.969849 821.655457,419.969849 
	C823.539062,431.149261 828.695312,440.441711 834.155212,449.437073 
	C836.622253,453.501587 840.463501,456.954132 844.262207,459.947052 
	C856.086121,469.263092 870.900269,472.186523 884.362427,478.012451 
	C888.903442,479.977661 893.625183,481.525360 898.636963,483.403564 
	C889.732544,488.270172 881.552856,492.305847 873.815918,497.061737 
	C858.751770,506.321655 847.500610,518.781311 841.899292,536.009216 
	C832.744385,564.166565 828.886780,593.334290 825.079651,622.496460 
	C822.662720,641.009521 820.703125,659.595215 819.082275,678.195740 
	C817.374146,697.798950 816.444153,717.468872 814.898743,737.088013 
	C814.347107,744.091370 812.989685,751.031189 812.000000,758.000000 
	C810.933289,758.000000 809.866638,758.000000 808.399963,758.000000 
M883.554810,354.994934 
	C883.355957,353.624573 883.157104,352.254242 882.943665,350.783447 
	C845.859497,362.601257 834.376587,374.509766 825.051208,401.912781 
	C825.629700,402.153015 826.220276,402.611725 826.811707,402.612823 
	C844.629333,402.646088 862.447083,402.647308 880.264771,402.617310 
	C883.457092,402.611938 883.840942,400.529144 883.813721,397.875610 
	C883.669922,383.886261 883.640381,369.895721 883.554810,354.994934 
M883.831299,321.422668 
	C883.753113,309.276794 883.555176,297.129852 883.661255,284.985565 
	C883.698792,280.697723 882.133240,279.271881 877.850586,279.306091 
	C862.045776,279.432312 846.238342,279.209686 830.431946,279.201782 
	C828.572083,279.200867 826.712036,279.717468 825.527161,279.893738 
	C832.400513,311.097168 856.467163,322.680695 883.836304,331.730103 
	C883.836304,328.552948 883.836304,325.472900 883.831299,321.422668 
M781.485840,402.698395 
	C786.675781,402.698395 791.865723,402.698395 797.798889,402.698395 
	C793.723877,389.526123 787.744751,378.996033 779.132324,370.820953 
	C768.116516,360.364502 752.962646,357.001709 739.261536,350.503601 
	C739.034119,351.771667 738.824524,352.406036 738.820374,353.041779 
	C738.722351,368.006561 738.645935,382.971527 738.567017,397.936432 
	C738.547302,401.678131 740.712158,402.615631 744.066772,402.601746 
	C756.207642,402.551605 768.349121,402.657104 781.485840,402.698395 
M772.500427,279.275513 
	C763.002441,279.308167 753.503723,279.419525 744.006836,279.334778 
	C740.200439,279.300842 738.751099,280.777039 738.773682,284.665436 
	C738.852173,298.160156 738.633850,311.656403 738.589905,325.152283 
	C738.583740,327.046021 738.919983,328.940887 739.105164,330.915497 
	C769.386169,323.632874 794.834351,300.855316 796.869446,279.271118 
	C789.059631,279.271118 781.280029,279.271118 772.500427,279.275513 
z"/>
    <path fill="currentColor" opacity="1.000000" stroke="none"
          d="
M131.236328,184.766159 
	C137.472702,190.308990 145.044647,192.169724 152.443924,192.857040 
	C169.638748,194.454315 186.920135,195.556381 204.184143,195.863190 
	C226.312149,196.256470 248.457672,195.515869 270.595337,195.542114 
	C315.756287,195.595627 360.916962,195.851334 406.077881,195.989990 
	C422.764191,196.041214 439.451996,196.121109 456.136810,195.955383 
	C468.110535,195.836441 480.116638,195.796097 492.041626,194.865784 
	C503.627625,193.961945 515.232544,192.834610 526.064209,187.605057 
	C536.114380,182.752777 541.756531,174.199173 545.838745,164.720276 
	C550.260254,154.453537 553.300110,143.593857 557.016296,133.018723 
	C557.512268,131.607330 558.441223,130.348083 559.707947,128.035904 
	C562.717346,136.658676 565.098328,144.283127 568.031494,151.688904 
	C571.996155,161.699524 575.421753,171.932449 583.324158,179.999359 
	C591.146179,187.984253 601.343018,191.040192 611.158020,194.939667 
	C618.002319,197.658890 625.114563,199.702927 632.100342,202.068604 
	C632.854919,202.324127 633.564392,202.713089 635.398254,203.534286 
	C624.239258,207.756500 615.039490,211.854874 605.472534,214.732315 
	C583.645691,221.297165 572.992432,237.438248 567.116272,257.920624 
	C566.732239,259.259247 567.223816,261.534851 568.181885,262.359985 
	C568.976257,263.044159 571.412842,262.748718 572.515198,261.997223 
	C579.566528,257.190002 586.427002,252.104050 593.397705,247.176880 
	C597.468811,244.299301 601.734802,241.688477 605.717712,238.697495 
	C609.764526,235.658493 613.420959,237.319504 616.226868,239.970184 
	C631.102478,254.022949 643.889099,269.856750 653.794800,287.764252 
	C659.131104,297.411255 656.843445,304.888611 643.406433,305.805847 
	C626.497681,306.960083 609.489624,306.813141 592.523315,306.866089 
	C588.115601,306.879883 586.884338,308.139923 586.894165,312.519196 
	C587.030762,373.346985 586.967896,434.175140 587.022522,495.003143 
	C587.034119,507.958099 583.428589,519.452881 576.363586,530.530518 
	C567.902832,543.796814 557.292725,554.390686 543.973145,562.387207 
	C540.684998,564.361206 536.766907,565.286255 532.109985,567.092346 
	C532.109985,556.344299 532.112610,546.748962 532.109558,537.153625 
	C532.083008,454.327881 532.072998,371.502136 532.007568,288.676422 
	C531.998657,277.398865 533.514099,279.091949 522.126282,278.989166 
	C506.466766,278.847809 490.804932,278.937408 475.146088,278.756714 
	C470.881317,278.707520 466.623657,278.043243 462.365936,277.661530 
	C461.603271,269.328094 468.035950,262.015625 476.102295,262.016144 
	C499.600281,262.017609 523.098267,262.021729 546.596252,262.007660 
	C552.451233,262.004181 552.969849,261.355164 551.034668,255.678299 
	C547.665283,245.794525 543.992798,236.102661 536.750427,228.148514 
	C528.606445,219.204117 517.931519,215.450851 506.601715,214.171249 
	C493.489624,212.690384 480.215973,212.149216 467.008514,212.090759 
	C415.349884,211.862076 363.689728,211.985001 312.030121,211.977295 
	C310.094452,211.977005 308.158752,211.977264 304.726105,211.977264 
	C314.120728,221.614182 322.557770,230.268814 331.173553,239.106796 
	C323.744751,246.744232 316.936646,253.743561 310.128540,260.742889 
	C310.496399,261.163116 310.864258,261.583344 311.232086,262.003571 
	C329.371735,262.003571 347.517548,262.238098 365.644562,261.759796 
	C368.480408,261.684967 371.238831,258.380463 374.018677,256.547546 
	C378.314484,253.715073 382.579865,250.836090 386.891663,248.028244 
	C391.319092,245.145096 395.895142,245.902771 400.199402,248.087677 
	C413.060516,254.616257 426.283203,260.598663 438.497833,268.189240 
	C451.477692,276.255341 449.710480,274.612152 442.228729,285.853302 
	C438.437164,291.550049 436.638397,296.824341 436.830933,303.480072 
	C437.173859,315.336548 437.033997,327.211487 436.894592,339.076324 
	C436.688080,356.655518 435.953339,374.237427 436.190857,391.808075 
	C436.273254,397.903015 433.576233,400.279846 428.676697,401.974670 
	C411.314026,407.980560 393.611969,412.355164 375.212372,413.612549 
	C368.716431,414.056519 367.363159,412.996338 367.061798,406.542572 
	C366.522949,395.001648 366.522919,395.001892 355.006592,395.001587 
	C349.007111,395.001434 343.007629,394.998291 337.008148,395.000366 
	C331.197876,395.002380 330.046783,395.858490 330.050812,401.724457 
	C330.062927,419.322205 330.415924,436.919861 330.412567,454.517487 
	C330.409454,470.989594 330.571198,487.483032 329.789368,503.925690 
	C329.320618,513.783936 323.920898,522.111267 318.380920,530.096619 
	C308.308289,544.615295 294.507294,554.622864 278.973602,562.429626 
	C274.862366,564.495789 270.335693,565.735291 265.523102,567.532288 
	C265.271667,566.198120 265.025574,565.480896 265.016785,564.760803 
	C264.680389,537.296021 264.248352,509.831665 264.081848,482.365723 
	C263.920380,455.730316 264.042023,429.093262 264.022705,402.456909 
	C264.017792,395.645721 263.331207,395.007385 256.257202,395.002075 
	C246.924667,394.995056 237.563705,395.430939 228.271698,394.817383 
	C223.703629,394.515747 220.284744,395.140411 216.522919,397.911591 
	C201.474152,408.997131 183.974350,414.490204 166.079422,418.846008 
	C164.052917,419.339294 161.802505,418.912750 159.019165,418.912750 
	C159.019165,416.948853 159.019028,415.178345 159.019196,413.407837 
	C159.023941,363.412140 159.008072,313.416412 159.076630,263.420807 
	C159.081573,259.817139 159.417969,256.152740 160.178223,252.641739 
	C160.477493,251.259735 162.302032,249.270233 163.536530,249.191269 
	C168.817139,248.853485 174.363419,248.164688 179.400116,249.353043 
	C195.195175,253.079742 210.801041,257.606903 226.490753,261.784454 
	C227.432312,262.035156 228.465912,261.996765 229.456741,261.997345 
	C246.955231,262.007538 264.453705,262.005066 281.952209,261.992432 
	C282.563995,261.992004 283.175751,261.859100 285.568756,261.580780 
	C280.698120,256.184570 276.660400,251.640182 272.539032,247.173035 
	C270.254059,244.696381 267.575470,242.530731 265.634125,239.823456 
	C265.105377,239.086166 266.218536,236.535797 267.239685,235.426392 
	C273.645996,228.466187 280.244568,221.683029 286.761322,214.824005 
	C287.290161,214.267365 287.682648,213.581177 288.928802,211.869980 
	C282.561279,211.869980 277.196167,211.863937 271.831085,211.870956 
	C239.835007,211.912796 207.835007,211.698593 175.845535,212.180939 
	C167.696503,212.303818 159.422058,214.034439 151.490356,216.113892 
	C141.739792,218.670197 138.996964,223.077957 138.994614,232.971909 
	C138.986298,267.802277 138.893265,302.632904 139.004837,337.462891 
	C139.091873,364.633698 135.138062,391.141205 125.878319,416.693848 
	C120.214355,432.323761 111.592743,446.479187 101.625290,459.726044 
	C88.932953,476.594330 73.827919,491.115021 55.519100,501.655884 
	C42.385765,509.217102 28.401209,515.309448 14.732365,521.924805 
	C10.770000,523.842468 6.586495,525.303162 2.504361,526.973389 
	C2.220686,526.625122 1.937011,526.276917 1.653337,525.928711 
	C4.900307,522.012085 8.213805,518.148499 11.382812,514.169800 
	C25.568317,496.359650 38.327888,477.577759 48.363220,457.118958 
	C56.813389,439.891815 62.084000,421.661957 64.049072,402.466461 
	C67.772964,366.090454 65.340363,329.624390 65.943512,293.204926 
	C66.255302,274.378357 65.658676,255.533768 66.136116,236.714157 
	C66.389626,226.721573 62.127987,220.185089 53.644455,216.003021 
	C45.741833,212.107346 37.654510,208.586975 29.665749,204.864349 
	C28.944029,204.528046 28.348591,203.920731 27.118515,203.015305 
	C34.154453,200.590851 40.849667,198.571060 47.320332,195.988617 
	C57.718029,191.838898 69.176743,189.300232 77.246597,181.037277 
	C82.032524,176.136826 86.039276,169.999268 88.813965,163.718857 
	C93.330002,153.496964 96.529976,142.695221 100.348244,132.160995 
	C100.720451,131.134125 101.532410,130.266632 102.666435,128.510162 
	C104.246994,133.468445 105.562622,137.746185 106.973160,141.992401 
	C111.221458,154.781342 116.088585,167.311813 124.097229,178.292587 
	C125.878204,180.734497 128.663223,182.444138 131.236328,184.766159 
M228.878708,357.499573 
	C228.874481,362.165283 229.119858,366.848419 228.796204,371.491882 
	C228.468597,376.192169 230.488922,377.761627 234.904831,377.485718 
	C238.224274,377.278381 241.567749,377.455414 244.900528,377.462036 
	C283.227264,377.538330 321.554016,377.621979 359.880798,377.678802 
	C363.367584,377.683960 366.816345,378.143097 366.782501,372.574127 
	C366.603180,343.080475 366.671143,313.585052 366.736969,284.090454 
	C366.745056,280.456726 365.284790,279.156525 361.678406,279.164642 
	C319.185913,279.260529 276.693176,279.276581 234.200546,279.249634 
	C230.128448,279.247070 228.698761,280.943695 228.804871,285.000336 
	C229.040100,293.992859 228.881531,302.995483 228.904556,311.993927 
	C228.924591,319.827393 229.165131,320.099152 237.093781,320.092407 
	C270.749329,320.063721 304.404877,319.997345 338.060425,319.962952 
	C346.663818,319.954193 352.610443,326.932831 351.516663,335.957520 
	C350.275116,336.102356 348.976471,336.373413 347.674957,336.387909 
	C326.684204,336.621521 305.693390,336.874939 284.701904,337.014038 
	C268.372925,337.122253 252.042862,337.065125 235.713333,337.109528 
	C229.007553,337.127747 228.984528,337.160980 228.900848,344.002289 
	C228.849899,348.167725 228.883453,352.334167 228.878708,357.499573 
z"/>
    <path fill="#010101" opacity="1.000000" stroke="none"
          d="
M518.963013,370.000000 
	C518.963318,380.327850 519.539856,390.197327 518.834473,399.974274 
	C517.636292,416.582458 516.504700,433.283325 513.677246,449.657227 
	C511.558929,461.924500 504.741333,472.572479 496.427521,482.058716 
	C478.539001,502.469879 455.039093,512.873474 429.406097,518.768005 
	C413.520264,522.421143 397.227661,524.316833 381.100983,526.897461 
	C379.008331,527.232300 376.815826,526.943237 374.669586,526.943237 
	C374.525787,526.491821 374.382019,526.040466 374.238220,525.589050 
	C376.531097,524.740540 378.769501,523.676575 381.126190,523.080261 
	C392.040436,520.319031 403.323547,518.599609 413.820770,514.732544 
	C422.856171,511.403992 431.121613,505.870331 439.498718,500.924194 
	C443.094025,498.801422 442.737030,496.416016 438.978485,493.892487 
	C428.292023,486.717529 416.111023,483.652466 403.886505,481.091187 
	C389.949768,478.171173 375.789032,476.326172 361.735931,473.952942 
	C356.319672,473.038239 350.949768,471.840607 345.524506,470.990387 
	C341.936737,470.428131 340.442078,464.828369 340.292694,460.380005 
	C340.169647,456.715851 343.229218,457.334534 345.624420,456.994019 
	C353.870941,455.821655 360.007263,451.371613 363.951874,444.156616 
	C366.563904,439.379028 369.005707,434.439148 370.814209,429.321167 
	C371.690826,426.840363 372.360077,426.078430 374.862061,426.669342 
	C386.759369,429.479187 398.733398,431.979187 410.580627,434.982147 
	C428.365417,439.490112 445.516602,445.769318 461.781250,454.355316 
	C463.007080,455.002411 464.433105,455.270294 466.225281,455.867462 
	C467.158966,451.767181 468.661316,447.763580 468.887726,443.689087 
	C469.567108,431.461914 469.720245,419.206146 470.135071,406.963409 
	C470.364288,400.198578 470.938446,393.438171 470.957825,386.674622 
	C471.047638,355.330292 470.997559,323.985565 470.997559,292.318481 
	C486.071411,292.318481 501.799438,292.318481 518.962769,292.318481 
	C518.962769,318.071869 518.962769,343.785919 518.963013,370.000000 
z"/>
    <path fill="#010101" opacity="1.000000" stroke="none"
          d="
M116.769424,495.237274 
	C113.504478,490.965179 110.086250,487.180237 107.602463,482.858276 
	C105.434525,479.085968 106.187759,475.301422 109.566528,471.885712 
	C121.156563,460.169250 135.081146,451.986267 150.322845,446.538940 
	C168.384842,440.083679 186.918274,434.935669 205.298859,429.391724 
	C210.065048,427.954193 214.997742,427.015717 219.901611,426.104431 
	C223.768661,425.385803 224.785919,428.482239 225.961456,431.214661 
	C228.042679,436.052246 229.673355,441.166199 232.366898,445.637787 
	C236.065720,451.778290 241.827103,455.404053 248.927124,457.232452 
	C251.123123,457.797974 255.539398,456.804840 255.020355,461.782654 
	C254.588547,465.924042 253.342300,469.727051 249.034515,470.851227 
	C243.586334,472.272980 237.956055,473.033051 232.378860,473.918213 
	C210.396027,477.406982 188.117264,479.554993 167.226608,488.015472 
	C162.761246,489.823914 158.375549,491.950226 154.244659,494.418030 
	C151.776550,495.892487 150.698746,497.465759 154.258041,500.245605 
	C169.158401,511.882904 186.475479,517.218323 204.516815,521.087463 
	C209.501541,522.156494 214.364517,523.793091 219.283340,525.169312 
	C219.278763,525.614136 219.274170,526.058960 219.269592,526.503784 
	C217.380844,526.615234 215.455399,527.022400 213.608978,526.793091 
	C192.045364,524.114868 170.436447,521.439209 149.650604,514.839844 
	C137.405914,510.952301 126.315552,504.608917 116.769424,495.237274 
z"/>
    <path fill="#010101" opacity="1.000000" stroke="none"
          d="
M623.000061,331.998810 
	C631.798767,331.998810 640.097534,331.998810 648.993896,331.998810 
	C648.993896,335.417725 648.993835,338.524170 648.993835,341.630646 
	C648.994019,357.617065 648.770264,373.607544 649.058044,389.588776 
	C649.340820,405.292542 644.480835,418.472961 633.614563,430.202911 
	C624.314636,440.242035 613.248901,446.723846 600.558411,452.440430 
	C600.558411,412.003937 600.558411,372.222473 600.558411,331.998810 
	C608.239197,331.998810 615.369690,331.998810 623.000061,331.998810 
z"/>
</svg>